<?xml version="1.0" encoding="UTF-8"?>
<svg xmlns="http://www.w3.org/2000/svg" viewBox="0 0 242 220">
<title>Cachorrinho com lupa — versão corrigida</title>
<desc>Geometria original preservada, branco quente, contornos pretos e detalhes rosa sobre fundo creme.</desc>
<rect width="242" height="220" fill="#FAF3E9"/>
<g transform="translate(17 21)">
<path d="M156.28,154.36l-20.31,1.27c2.41,9.11-1.97,16.99-10.64,19.83-11.7,3.84-23.78,1.31-31.79-8.86-9.88,5.69-19.98,4.29-30.16,5.43-6.18.7-13.11.09-19.13-.07-5.24,2.02-9.7,8.09-17.28,7.19-6.04-.72-13-.44-18.24-4.29C1.9,169.83.03,161.76,0,153.36c-.08-21.37,6.41-41.53,17.13-59.93.25-10.23,3.44-19.1,7.84-28.12C5.74,55.44-2.79,33.25,6.51,14.03,11.74,3.24,24.27-3.83,28.94,2.23c4.42,5.74-10.54,25.05,13.17,42.84,41.41-30.92,72.2-8.61,88.98-4.78l18.52,4.23c19.52-11.25,56.39,17.51,51.92,40.17-1.48,7.51-7.39,12.42-15.74,11.97,3.99,8.05,6.54,15.67,6.75,24.47,7.38,9.93,3.7,23.25-7.04,28.92-9.26,4.89-18.69,3.65-29.22,4.31Z" fill="#FFFDFA"/>
<path xmlns="http://www.w3.org/2000/svg" d="M156.28,154.36l-20.31,1.27c2.41,9.11-1.97,16.99-10.64,19.83-11.7,3.84-23.78,1.31-31.79-8.86-9.88,5.69-19.98,4.29-30.16,5.43-6.18.7-13.11.09-19.13-.07-5.24,2.02-9.7,8.09-17.28,7.19-6.04-.72-13-.44-18.24-4.29C1.9,169.83.03,161.76,0,153.36c-.08-21.37,6.41-41.53,17.13-59.93.25-10.23,3.44-19.1,7.84-28.12C5.74,55.44-2.79,33.25,6.51,14.03,11.74,3.24,24.27-3.83,28.94,2.23c4.42,5.74-10.54,25.05,13.17,42.84,41.41-30.92,72.2-8.61,88.98-4.78l18.52,4.23c19.52-11.25,56.39,17.51,51.92,40.17-1.48,7.51-7.39,12.42-15.74,11.97,3.99,8.05,6.54,15.67,6.75,24.47,7.38,9.93,3.7,23.25-7.04,28.92-9.26,4.89-18.69,3.65-29.22,4.31ZM37.94,47.79c-14.39-10.27-17.86-26.36-12.74-42.6-7.09.22-11.22,5.13-14.03,10.53-8.73,16.81-.56,37.59,16.44,45.01l10.33-12.94ZM114.69,131.76c-8.82,2.09-18.83,1.27-28.29-2.64l-3.32,5.79c2.03,2.58,4.33,5.17,4.65,7.54,1.03,7.77-4.42,13.07-10.83,15.85l-6.11,8.24c9.37.69,17.08-2.14,24.98-5.98,4.65,8.7,14.08,13.29,23.08,11.01l2.66-5.86,1.43,5.44c3.84-1.68,6.75-3.6,8.03-6.52,1.17-2.66,1.27-7.92-.89-9.59-7.53-1.53-16.06-4.24-21.81-8.32-.73-.52-.49-3.21.26-3.32.61-.1,1.96-.01,2.56.29,11.28,5.72,23.66,8.47,36.46,5.82-10.86-9-10.72-24.24-.73-33.55,10.9-10.17,26.79-9.69,39.63-1-1.68-15.23-9.28-16.79-14.88-33.57-7.32-21.92-18.28-35.63-43.39-35.59-17.41-10.67-37.98-14.07-57.65-9.27-28.01,6.84-47.06,30.14-48.81,58.7-10,15.05-23.96,58.32-12.84,72.55,4.21,5.39,11.98,6.38,17.95,5.76l2.46-5.79,1.94,5.85c3.09-1.56,5.74-3.08,8.36-4.95l-6.54-7.55c-.44-.51-.19-2.77-.03-3.45s2.57-.9,3.06-.23c3.66,5.14,11.56,11.1,19.06,10.32,6.28-.66,12.03-3.44,14.05-8.96-2.24-1.51-3.36-2.25-5.91-4.72l8.01,1.33c2.3-5.68.27-11.57-3.8-14.88-9.82-7.99-19.9,1.28-18.53-3.37.18-.6.88-2.21,1.42-2.46l5.04-2.36c-1.65-2.65-3.05-5.43-2.03-7.18,4.72-.77,4.99,7.74,10.3,7.57,1.16-.04,2.33-3.1,3.35-3.7,2.4-1.4,6.09-3.17,7.32-6.92-8.77-8.07-13.54-18.4-12.92-30.67,1.05-20.86,17.91-37.32,38.23-37.5,10.28-.09,20.06,4.49,27.54,11.73,9.63,9.32,14.22,22.69,13.02,36.04h0c-1.3,14.4-11.44,26.72-25.51,30.06ZM128.92,95.34c1.4-17.71-13.28-32.38-31-30.98-13.93,1.1-25.22,12.38-26.31,26.31-1.4,17.71,13.28,32.38,31,30.98,13.93-1.1,25.22-12.38,26.31-26.31ZM176.04,131.73c.98-4.4-2.86-8.23-7.26-7.25-2.22.49-4,2.28-4.5,4.5-.98,4.4,2.86,8.23,7.26,7.25,2.22-.49,4-2.28,4.5-4.5Z"  fill="#171615"/>
  
<path xmlns="http://www.w3.org/2000/svg" d="M162.24,98.5c-3.36.24-5.51-3.01-5.74-5.6s.94-6.02,3.92-6.73c3.33-.8,6.16,1.78,6.6,4,.67,3.35.08,7.97-4.78,8.33Z"  fill="#171615"/>
  
<circle xmlns="http://www.w3.org/2000/svg" cx="101.82" cy="93.01" r="14.24"  fill="#171615"/>

<path d="M128.92,95.34c1.4-17.71-13.28-32.38-31-30.98-13.93,1.1-25.22,12.38-26.31,26.31-1.4,17.71,13.28,32.38,31,30.98,13.93-1.1,25.22-12.38,26.31-26.31Z" fill="none" stroke="#EEA0B3" stroke-width="3.2"/>
<path d="M79 132L72 143" fill="none" stroke="#EEA0B3" stroke-width="4" stroke-linecap="round"/>
<ellipse cx="106" cy="88" rx="3.5" ry="4" fill="#FFFDFA"/>
<g fill="none" stroke="#EEA0B3" stroke-width="4.2" stroke-linecap="round">
<path d="M200 48L205 39M207 58L216 54"/>
</g>
</g>
</svg>
